<?xml version="1.0" standalone="no"?>
<!DOCTYPE svg PUBLIC "-//W3C//DTD SVG 20010904//EN"
 "http://www.w3.org/TR/2001/REC-SVG-20010904/DTD/svg10.dtd">
<svg version="1.0" xmlns="http://www.w3.org/2000/svg"
 width="4167.000000pt" height="4167.000000pt" viewBox="0 0 4167.000000 4167.000000"
 preserveAspectRatio="xMidYMid meet">
<metadata>
Created by potrace 1.11, written by Peter Selinger 2001-2013
</metadata>
<g transform="translate(0.000000,4167.000000) scale(0.100000,-0.100000)"
fill="#000000" stroke="none">
<path d="M7230 20835 l0 -18047 33 20 c25 16 552 320 707 410 138 79 250 144
418 241 106 61 207 120 225 130 17 10 104 60 192 111 151 87 382 220 685 395
74 43 172 100 218 126 45 27 85 49 89 49 4 0 14 6 22 14 9 7 48 31 86 51 39
21 81 46 95 55 14 9 50 31 80 47 50 27 180 103 808 466 106 62 217 126 247
142 29 17 158 91 286 165 128 74 238 136 246 138 7 2 13 8 13 13 0 5 4 9 9 9
5 0 76 39 158 86 81 48 164 96 183 107 19 10 224 129 455 262 231 133 436 252
455 263 73 41 499 288 600 347 58 34 112 65 120 69 8 4 24 12 35 19 11 7 56
33 100 58 206 118 642 370 655 379 8 5 37 22 65 36 27 15 67 38 88 51 21 13
127 75 235 137 108 62 258 148 332 191 74 43 178 103 230 133 52 30 100 58
105 62 6 4 35 21 65 37 30 17 125 71 210 120 85 49 198 115 250 145 194 112
426 246 460 266 19 11 91 52 160 92 69 40 159 92 200 115 41 23 122 70 178
104 57 33 105 61 107 61 2 0 64 36 139 80 74 44 137 80 140 80 3 0 30 16 60
35 30 19 57 35 59 35 3 0 35 18 72 41 37 22 84 50 104 61 37 21 544 313 599
345 17 10 97 56 178 103 81 47 168 97 193 112 25 15 57 33 71 41 45 24 780
448 810 467 8 5 53 31 99 57 47 26 96 55 110 63 14 8 69 40 121 70 52 30 102
60 111 65 9 6 32 18 50 29 19 10 120 68 224 129 105 61 210 121 234 135 25 14
68 38 95 55 28 16 76 43 106 60 30 16 62 36 71 43 8 8 18 14 22 14 3 0 30 14
59 31 47 28 460 266 548 317 19 11 107 61 195 112 88 51 257 149 375 217 118
67 222 127 230 132 8 6 53 32 100 59 47 27 117 67 157 90 39 23 87 50 105 61
77 44 362 209 478 276 69 40 141 82 160 93 31 17 372 213 458 263 107 62 222
128 271 156 24 14 104 61 178 104 75 43 137 79 139 79 2 0 28 16 58 35 30 19
57 35 60 35 3 0 34 17 68 38 35 21 83 50 108 64 97 55 795 457 865 499 17 10
41 24 55 32 37 20 52 29 560 322 256 148 476 275 490 282 14 8 45 26 70 41 25
15 96 56 158 92 62 36 120 70 130 75 9 6 53 31 97 56 44 26 96 56 115 66 19
11 63 37 97 57 34 20 66 36 71 36 6 0 12 4 14 8 3 7 23 19 148 90 57 31 334
191 350 202 8 5 58 34 110 63 52 30 280 161 505 292 226 130 516 298 645 373
343 198 392 226 645 372 127 73 247 143 267 154 20 12 77 44 125 72 91 53 208
120 265 153 18 10 132 76 253 146 121 70 326 188 455 262 129 74 276 159 325
188 174 102 410 239 450 261 22 12 102 58 179 103 76 44 140 81 142 81 2 0 56
32 120 70 64 39 118 70 120 70 3 0 69 38 147 84 78 46 187 109 242 140 55 32
107 61 115 66 8 5 53 32 100 58 661 381 1017 587 1087 628 41 24 76 44 78 44
2 0 32 17 66 38 35 22 84 50 109 64 25 14 99 57 165 95 66 38 215 124 330 190
116 67 224 129 242 140 69 40 360 208 578 333 127 73 244 141 260 151 17 10
41 24 55 32 34 18 606 349 650 376 19 11 42 24 50 28 8 3 39 21 68 40 29 18
54 33 56 33 2 0 123 69 269 153 145 85 271 157 278 160 8 4 30 17 49 28 70 42
605 352 645 373 134 73 463 272 458 277 -5 3 -28 18 -53 31 -62 35 -622 357
-750 433 -58 34 -125 73 -150 87 -25 14 -206 118 -404 232 -197 114 -372 216
-390 225 -17 10 -161 94 -321 186 -159 92 -346 200 -415 240 -543 313 -671
387 -785 453 -139 80 -324 187 -365 209 -14 8 -37 22 -52 31 -15 9 -78 46
-140 82 -62 35 -122 70 -133 77 -11 6 -36 20 -55 31 -19 10 -75 43 -125 72
-49 29 -106 62 -125 72 -19 11 -71 41 -115 67 -44 25 -88 51 -97 56 -107 61
-260 150 -438 253 -118 69 -233 135 -256 148 -22 12 -134 77 -249 143 -114 67
-210 121 -213 121 -3 0 -13 6 -21 14 -9 7 -47 30 -85 50 -38 21 -92 51 -120
68 -28 16 -58 33 -66 38 -8 5 -51 30 -95 56 -44 26 -98 57 -120 70 -69 38
-288 166 -320 185 -16 10 -37 22 -45 26 -15 7 -292 165 -320 183 -8 6 -31 18
-50 29 -19 11 -152 87 -294 170 -228 133 -262 149 -275 137 -9 -8 -27 -19 -41
-25 -14 -6 -39 -20 -55 -30 -17 -10 -138 -80 -270 -156 -341 -197 -388 -224
-405 -235 -8 -6 -22 -13 -30 -17 -8 -3 -46 -25 -85 -48 -38 -23 -176 -103
-305 -177 -129 -75 -294 -170 -367 -211 -72 -42 -147 -85 -165 -96 -199 -114
-458 -264 -743 -429 -71 -41 -160 -92 -197 -113 -117 -67 -131 -75 -258 -149
-110 -64 -224 -130 -770 -445 -69 -39 -183 -106 -255 -147 -71 -41 -276 -160
-455 -263 -179 -103 -365 -211 -415 -240 -49 -29 -128 -74 -175 -101 -47 -27
-92 -53 -102 -59 -9 -5 -29 -17 -45 -26 -15 -8 -116 -66 -223 -129 -107 -62
-215 -124 -240 -138 -25 -14 -74 -42 -109 -64 -34 -21 -65 -38 -67 -38 -2 0
-37 -20 -77 -43 -39 -24 -166 -98 -282 -164 -115 -67 -224 -129 -242 -139 -59
-35 -308 -179 -328 -190 -69 -38 -435 -250 -457 -265 -15 -11 -29 -19 -32 -19
-3 0 -43 -22 -88 -49 -101 -59 -310 -180 -478 -276 -69 -39 -228 -131 -355
-205 -126 -73 -246 -141 -265 -152 -19 -11 -39 -24 -45 -28 -5 -4 -31 -19 -57
-33 -25 -14 -106 -60 -180 -103 -73 -42 -221 -127 -328 -189 -107 -62 -211
-122 -230 -133 -19 -12 -71 -41 -115 -67 -44 -25 -100 -57 -125 -72 -25 -14
-67 -39 -95 -55 -27 -15 -83 -47 -124 -71 -40 -23 -89 -51 -110 -63 -39 -22
-1095 -632 -1201 -694 -36 -20 -103 -60 -150 -87 -47 -28 -112 -66 -145 -84
-34 -19 -139 -79 -233 -134 -203 -118 -180 -104 -312 -180 -58 -33 -113 -64
-122 -70 -9 -5 -41 -23 -70 -39 -29 -15 -60 -34 -68 -40 -8 -7 -58 -36 -110
-66 -52 -29 -175 -100 -273 -157 -98 -57 -182 -103 -187 -103 -6 0 -10 -4 -10
-10 0 -5 -4 -10 -9 -10 -5 0 -132 -71 -283 -158 -150 -87 -322 -187 -383 -222
-60 -34 -153 -88 -205 -118 -148 -86 -281 -163 -325 -187 -81 -46 -589 -340
-693 -402 -41 -24 -75 -43 -77 -43 -2 0 -39 -21 -82 -46 -68 -41 -473 -275
-573 -331 -57 -33 -524 -302 -540 -312 -17 -11 -170 -99 -1005 -581 -335 -193
-630 -364 -655 -378 -25 -15 -52 -30 -60 -35 -8 -4 -33 -18 -55 -32 -22 -13
-56 -32 -75 -43 -47 -25 -261 -149 -280 -162 -8 -5 -40 -23 -70 -40 -30 -17
-84 -48 -120 -70 -36 -22 -72 -43 -80 -47 -8 -4 -80 -45 -160 -91 -80 -47
-160 -93 -178 -103 -72 -42 -180 -103 -232 -134 -79 -46 -307 -177 -360 -207
-25 -14 -99 -57 -165 -96 -66 -38 -159 -92 -207 -120 -49 -28 -88 -45 -89 -39
-3 39 -4 17844 -1 17854 2 7 38 -9 90 -39 48 -28 103 -60 122 -70 19 -11 80
-46 135 -78 55 -32 116 -67 135 -77 19 -11 193 -112 385 -223 193 -112 364
-211 380 -220 17 -9 86 -49 153 -89 68 -39 127 -71 132 -71 6 0 10 -4 10 -9 0
-5 6 -11 13 -13 10 -2 259 -143 317 -179 31 -19 317 -183 356 -205 22 -12 58
-33 80 -46 21 -14 64 -38 94 -55 30 -17 154 -88 275 -158 368 -213 475 -275
520 -301 24 -13 95 -54 157 -90 62 -37 133 -78 158 -92 49 -27 228 -131 406
-234 61 -36 117 -68 125 -71 8 -4 30 -17 49 -28 19 -12 125 -73 235 -136 110
-64 217 -126 237 -139 21 -13 39 -24 42 -24 2 0 77 -43 167 -95 89 -52 163
-95 165 -95 2 0 28 -16 58 -35 30 -19 57 -35 59 -35 3 0 82 -45 177 -100 94
-55 176 -100 181 -100 5 0 9 -4 9 -10 0 -5 4 -10 10 -10 5 0 47 -22 92 -49 46
-27 99 -58 118 -68 48 -28 596 -344 980 -566 19 -11 60 -34 90 -51 30 -16 57
-33 58 -38 2 -4 7 -8 12 -8 8 0 131 -70 480 -273 85 -49 174 -100 197 -113 79
-45 338 -194 353 -204 16 -10 81 -47 165 -95 28 -15 62 -36 77 -46 14 -11 28
-19 31 -19 2 0 98 -54 212 -121 115 -66 227 -131 249 -143 84 -48 172 -99 201
-117 17 -10 37 -22 45 -26 8 -4 40 -21 70 -39 30 -17 74 -42 96 -55 41 -24
365 -212 394 -229 8 -5 58 -34 110 -63 52 -30 111 -64 130 -76 19 -11 42 -24
50 -28 8 -3 47 -25 85 -48 96 -57 225 -131 605 -350 179 -103 473 -273 653
-377 181 -104 334 -187 342 -185 10 4 344 195 570 327 17 10 116 67 220 127
236 136 410 237 584 338 74 42 149 85 165 95 17 9 51 29 76 44 25 14 82 47
128 73 46 27 91 53 100 58 9 6 51 30 92 53 41 24 98 57 125 73 28 16 59 34 70
39 11 6 27 14 35 20 25 17 342 200 346 200 2 0 37 20 77 45 41 25 78 45 81 45
4 0 12 5 19 10 7 6 149 90 317 186 168 97 366 211 440 254 74 43 254 146 400
230 146 84 276 159 289 167 23 15 22 16 -60 65 -46 28 -91 53 -99 56 -8 3 -50
28 -93 54 -43 26 -80 48 -83 48 -2 0 -21 11 -42 23 -20 13 -57 35 -82 49 -25
14 -117 67 -205 118 -88 51 -178 103 -200 115 -22 13 -107 62 -190 110 -82 48
-170 99 -195 113 -25 14 -101 58 -170 97 -69 40 -141 82 -160 93 -19 11 -75
43 -125 72 -49 29 -110 64 -135 78 -25 13 -49 28 -55 32 -5 4 -28 18 -50 30
-52 29 -451 259 -730 420 -121 70 -238 138 -261 151 -127 73 -261 151 -274
159 -8 5 -58 34 -110 63 -52 30 -111 64 -130 76 -19 11 -51 29 -70 39 -19 11
-204 117 -410 236 -206 120 -393 228 -415 240 -22 13 -74 43 -115 68 -41 24
-82 47 -90 51 -8 4 -24 13 -35 20 -19 11 -207 120 -285 165 -19 11 -118 68
-220 127 -102 59 -203 117 -225 129 -22 12 -110 63 -195 112 -85 50 -288 167
-450 261 -162 94 -311 180 -330 192 -19 11 -41 24 -49 28 -8 3 -91 51 -185
106 -94 54 -189 109 -211 122 -51 29 -336 193 -484 279 -62 36 -115 66 -117
66 -2 0 -28 16 -58 35 -30 19 -57 35 -60 35 -3 0 -35 18 -71 40 -36 22 -68 40
-72 40 -3 0 -14 6 -22 14 -9 7 -43 28 -76 46 -33 17 -97 54 -141 81 -45 27
-87 49 -93 49 -6 0 -11 5 -11 10 0 6 -4 10 -9 10 -5 0 -135 73 -288 162 -153
88 -384 222 -513 296 -129 74 -248 143 -265 153 -16 10 -52 30 -80 44 -27 15
-57 32 -65 39 -8 6 -24 16 -35 22 -43 23 -1092 628 -1135 654 -43 26 -102 60
-181 105 -57 32 -443 255 -459 265 -15 9 -96 56 -156 90 -156 89 -208 119
-261 152 -34 21 -64 38 -66 38 -2 0 -82 46 -178 101 -96 56 -199 116 -229 132
-30 17 -114 65 -185 107 -72 42 -137 79 -145 83 -8 4 -28 16 -45 26 -32 20
-58 35 -315 183 -91 52 -210 121 -265 153 -55 32 -120 69 -145 83 -25 14 -124
71 -221 128 -97 56 -191 111 -210 121 -19 10 -65 37 -104 60 -56 33 -310 180
-490 283 -16 10 -102 59 -190 110 -88 51 -180 104 -205 118 -25 13 -49 28 -55
32 -5 4 -30 19 -55 32 -25 14 -117 67 -205 118 -88 51 -176 102 -195 113 -19
10 -72 41 -118 68 -45 27 -85 49 -87 49 -3 0 -28 15 -57 33 -29 19 -60 37 -68
40 -8 4 -28 15 -45 26 -16 10 -48 28 -70 41 -22 12 -125 72 -230 133 -104 60
-208 120 -230 133 -22 12 -139 79 -260 149 -333 193 -659 381 -765 442 -52 30
-102 58 -110 64 -63 39 -172 99 -180 99 -6 0 -10 5 -10 10 0 6 -4 10 -9 10 -4
0 -58 29 -119 64 -61 36 -131 76 -154 89 -24 13 -110 64 -193 112 -82 48 -168
97 -190 110 -51 29 -264 151 -425 245 -69 39 -143 82 -165 95 -22 12 -80 46
-130 75 -144 84 -150 88 -385 222 -19 11 -71 41 -115 67 -44 25 -88 51 -98 56
-55 31 -449 259 -484 281 l-43 25 0 -18046z"/>
</g>
</svg>
