<?xml version="1.0" standalone="no"?>
<!DOCTYPE svg PUBLIC "-//W3C//DTD SVG 20010904//EN"
 "http://www.w3.org/TR/2001/REC-SVG-20010904/DTD/svg10.dtd">
<svg version="1.0" xmlns="http://www.w3.org/2000/svg"
 width="16.000000pt" height="16.000000pt" viewBox="0 0 16.000000 16.000000"
 preserveAspectRatio="xMidYMid meet">
<metadata>
Created by potrace 1.11, written by Peter Selinger 2001-2013
</metadata>
<g transform="translate(0.000000,16.000000) scale(0.000384,-0.000384)"
fill="#000000" stroke="none">
<path d="M24810 36283 c-124 -162 -261 -342 -305 -398 -44 -57 -118 -153 -165
-215 -84 -110 -272 -356 -288 -375 -4 -5 -28 -37 -52 -70 -25 -33 -53 -69 -62
-80 -9 -11 -103 -132 -208 -270 -106 -137 -200 -261 -211 -275 -11 -14 -92
-119 -180 -235 -88 -115 -166 -217 -172 -225 -15 -18 -109 -140 -358 -465
-101 -132 -240 -314 -309 -403 -69 -90 -212 -277 -318 -415 -106 -139 -198
-259 -205 -267 -7 -8 -26 -33 -42 -55 -16 -22 -32 -42 -35 -45 -3 -3 -32 -41
-66 -85 -33 -44 -102 -134 -153 -200 -50 -66 -140 -183 -198 -260 -59 -77
-111 -144 -115 -150 -4 -5 -27 -35 -51 -65 -24 -30 -162 -210 -307 -400 -145
-190 -302 -394 -349 -455 -46 -60 -114 -148 -150 -195 -35 -47 -75 -98 -88
-115 -13 -16 -27 -34 -31 -40 -4 -5 -73 -95 -153 -200 -80 -104 -224 -291
-318 -415 -95 -124 -180 -234 -190 -245 -9 -11 -27 -36 -41 -55 -14 -19 -30
-42 -37 -50 -18 -21 -342 -444 -438 -570 -44 -58 -85 -112 -92 -120 -15 -19
-614 -799 -657 -856 -17 -23 -170 -223 -341 -444 -340 -442 -432 -563 -794
-1035 -67 -88 -133 -173 -146 -190 -13 -16 -139 -181 -280 -365 -141 -184
-262 -342 -269 -350 -7 -9 -36 -47 -65 -85 -30 -39 -64 -83 -77 -100 -32 -41
-182 -238 -284 -370 -173 -226 -286 -373 -675 -880 -219 -286 -435 -567 -479
-625 -44 -58 -86 -112 -93 -120 -7 -8 -143 -186 -303 -395 -160 -209 -297
-387 -304 -396 -7 -8 -32 -42 -56 -75 -24 -32 -46 -61 -50 -64 -3 -3 -17 -21
-30 -40 -13 -19 -27 -37 -30 -40 -4 -3 -42 -52 -86 -109 -43 -58 -119 -157
-169 -222 -49 -64 -131 -170 -181 -236 -50 -65 -108 -141 -130 -169 -21 -28
-66 -87 -100 -130 -33 -43 -153 -199 -265 -345 -112 -147 -214 -279 -226 -295
-12 -16 -95 -123 -183 -239 -89 -115 -172 -223 -185 -240 -24 -31 -152 -198
-195 -255 -68 -91 -413 -539 -438 -570 -15 -19 -79 -102 -142 -185 -63 -82
-140 -184 -172 -225 -32 -41 -67 -86 -77 -100 -40 -53 -272 -356 -284 -370 -7
-9 -41 -54 -77 -100 -35 -47 -68 -89 -73 -95 -12 -15 -447 -583 -556 -725 -52
-69 -127 -166 -166 -216 -38 -50 -81 -106 -95 -124 -73 -96 -503 -657 -513
-670 -14 -17 -560 -728 -687 -895 -78 -102 -126 -165 -185 -240 -22 -29 -373
-487 -425 -555 -14 -18 -88 -114 -165 -214 -77 -100 -210 -273 -295 -385 -127
-166 -290 -378 -328 -426 -4 -5 -50 -66 -102 -135 -52 -69 -99 -130 -105 -136
-5 -6 -19 -23 -30 -38 -11 -15 -93 -123 -183 -239 -89 -117 -173 -225 -185
-241 -12 -16 -38 -50 -58 -75 -19 -25 -87 -113 -149 -196 -63 -82 -120 -157
-127 -165 -7 -8 -84 -109 -173 -225 -139 -182 -222 -291 -315 -410 -54 -70
-834 -1087 -889 -1160 -33 -44 -64 -84 -69 -90 -18 -23 -239 -311 -334 -435
-134 -176 -215 -281 -275 -357 l-50 -63 13692 0 c13035 0 13691 1 13686 18 -5
18 -38 141 -91 342 -19 69 -41 151 -49 182 -9 32 -43 160 -76 285 -33 126 -67
251 -75 278 -12 42 -145 535 -216 805 -11 41 -48 176 -81 300 -33 124 -73 272
-88 330 -15 58 -45 168 -65 245 -21 77 -53 196 -71 265 -18 69 -34 125 -34
125 0 0 -18 65 -39 145 -89 339 -102 387 -116 435 -14 49 -153 564 -161 597
-7 31 -12 50 -39 148 -14 52 -30 111 -35 131 l-10 35 -8326 0 c-4579 -1 -8327
1 -8329 5 -2 3 17 32 43 66 26 33 57 73 69 89 12 16 122 160 245 319 123 160
326 425 453 590 274 358 238 311 278 361 18 22 57 74 87 115 30 41 57 76 60
79 4 3 25 30 47 61 23 31 48 62 55 70 8 8 19 21 24 30 5 9 21 32 36 50 31 38
375 487 548 714 63 83 120 157 127 165 11 14 365 476 417 543 11 16 26 34 31
40 6 7 31 39 56 72 58 77 715 934 828 1081 47 61 127 164 176 229 118 154 109
141 161 210 77 101 81 106 182 236 53 70 135 177 182 239 47 61 92 120 101
130 8 10 24 31 35 45 10 15 44 59 75 99 30 39 96 125 146 191 51 66 173 226
272 355 100 129 234 304 298 389 93 121 272 354 321 416 9 12 203 266 214 280
4 6 18 24 31 40 37 47 478 623 532 695 27 36 52 67 55 70 7 6 79 101 125 164
16 22 34 46 40 52 5 6 21 26 35 44 14 18 86 112 160 209 75 97 194 253 265
346 71 94 133 175 137 180 31 37 49 61 95 122 204 264 442 576 463 603 14 18
36 47 50 65 14 18 36 47 50 65 63 83 274 358 295 385 42 53 199 259 230 300
16 22 35 47 42 55 12 15 278 361 315 410 10 14 47 61 81 105 34 44 89 115 121
158 33 43 63 80 66 82 7 4 46 -133 114 -395 26 -97 50 -189 136 -508 27 -100
52 -192 54 -205 3 -12 11 -44 20 -72 8 -27 29 -104 46 -170 17 -66 37 -142 45
-170 16 -56 155 -571 160 -595 4 -16 34 -128 59 -220 8 -30 33 -122 55 -205
22 -82 74 -278 116 -435 42 -157 78 -292 80 -300 2 -8 18 -67 35 -130 17 -63
40 -146 50 -185 10 -38 28 -106 40 -150 12 -44 43 -161 70 -260 27 -99 60
-223 74 -275 14 -52 33 -122 42 -155 9 -33 18 -67 20 -75 1 -8 44 -168 94
-355 51 -187 104 -387 120 -445 36 -138 97 -362 127 -475 14 -49 33 -121 43
-160 25 -94 51 -192 117 -435 30 -113 56 -209 57 -215 8 -43 41 -151 48 -156
5 -3 1093 -6 2419 -6 2195 0 2409 2 2405 16 -5 16 -124 459 -191 711 -70 264
-84 317 -100 375 -9 33 -26 94 -37 135 -11 41 -28 108 -39 147 -11 40 -28 106
-39 145 -10 40 -25 98 -34 128 -8 30 -24 91 -36 135 -12 44 -28 104 -36 133
-28 105 -46 170 -81 302 -19 74 -46 173 -58 220 -51 185 -126 466 -130 480 -2
8 -31 119 -65 245 -34 127 -68 253 -75 280 -8 28 -23 86 -35 130 -56 206 -231
862 -235 875 -2 8 -13 50 -24 93 -12 42 -30 112 -42 155 -11 42 -29 109 -39
147 -19 71 -49 186 -77 285 -41 152 -94 353 -99 379 -3 14 -7 28 -10 33 -3 4
-7 16 -9 25 -3 15 -103 389 -372 1393 -14 52 -27 102 -29 110 -2 8 -33 125
-70 260 -36 135 -68 252 -70 260 -2 8 -17 67 -34 130 -30 110 -74 272 -120
445 -11 44 -41 154 -66 245 -24 91 -46 174 -49 185 -6 25 -12 50 -70 260 -25
94 -48 177 -50 185 -2 8 -13 51 -25 95 -12 44 -24 89 -27 100 -3 11 -30 112
-60 225 -30 113 -56 212 -58 220 -2 8 -11 42 -20 75 -9 33 -32 116 -50 185
-18 69 -43 161 -55 205 -12 44 -62 231 -111 415 -50 184 -99 369 -110 410 -27
96 -199 740 -204 760 -2 8 -11 42 -20 75 -9 33 -27 101 -40 150 -26 96 -67
250 -110 405 -14 52 -28 106 -31 120 -2 14 -9 39 -14 55 -5 17 -26 91 -45 165
-20 74 -43 160 -51 190 -29 104 -55 205 -59 220 -1 8 -28 107 -58 220 -31 113
-65 241 -77 285 -12 44 -28 105 -36 135 -9 30 -17 62 -19 70 -17 65 -77 291
-85 315 -5 17 -11 41 -14 55 -3 14 -17 66 -31 115 -14 50 -27 99 -30 110 -2
11 -49 189 -105 395 -56 206 -103 382 -105 390 -2 8 -12 49 -24 90 -11 41 -43
161 -70 265 -28 105 -55 204 -60 220 -5 17 -21 75 -35 130 -15 55 -54 201 -87
325 -33 124 -62 232 -64 240 -2 8 -38 143 -81 300 -42 157 -79 295 -81 308 -3
12 -8 22 -12 21 -3 0 -107 -133 -231 -296z"/>
</g>
</svg>
